# This file uses centimeters as units for non-parametric coordinates.

mtllib BreadBag.mtl
v -0.837493 -2.843123 1.046029
v -0.930537 -2.843123 0.952984
v -1.033918 -2.739742 1.056366
v -0.940875 -2.739742 1.149411
v -0.940875 -2.739742 -1.149411
v -1.033918 -2.739742 -1.056367
v -0.837493 -2.843123 -1.046029
v -0.930537 -2.843123 -0.952985
v 0.940873 -2.739742 1.149411
v 1.033918 -2.739742 1.056366
v 0.930536 -2.843123 0.952984
v 0.837492 -2.843123 1.046029
v 0.837492 -2.843123 -1.046029
v 0.930536 -2.843123 -0.952985
v 1.033918 -2.739742 -1.056367
v 0.940873 -2.739742 -1.149411
v -0.940875 2.739742 1.149411
v -1.033918 2.739742 1.056366
v -0.837493 2.861426 1.046029
v -0.930537 2.861426 0.952984
v -0.837493 2.861426 -1.046029
v -0.930537 2.861426 -0.952985
v -1.033918 2.739742 -1.056367
v -0.940875 2.739742 -1.149411
v 0.930536 2.861426 0.952984
v 0.837492 2.861426 1.046029
v 1.033918 2.739742 1.056366
v 0.940873 2.739742 1.149411
v 0.837492 2.861426 -1.046029
v 0.930536 2.861426 -0.952985
v 0.940873 2.739742 -1.149411
v 1.033918 2.739742 -1.056367
v -0.298741 2.997895 0.373127
v -0.331931 2.997895 0.339938
v 0.298741 2.997895 0.373127
v 0.331930 2.997895 0.339938
v 0.331930 2.997895 -0.339940
v 0.298741 2.997895 -0.373129
v -0.298741 2.997895 -0.373129
v -0.331931 2.997895 -0.339940
v -0.149322 3.058970 0.186502
v -0.165912 3.058970 0.169913
v 0.149321 3.058970 0.186502
v 0.165911 3.058970 0.169913
v 0.165911 3.058970 -0.169914
v 0.149321 3.058970 -0.186504
v -0.149322 3.058970 -0.186504
v -0.165912 3.058970 -0.169914
v -0.199965 3.328619 0.249755
v -0.222181 3.328619 0.227539
v 0.199964 3.328619 0.249755
v 0.222180 3.328619 0.227539
v 0.222180 3.328619 -0.227541
v 0.199964 3.328619 -0.249757
v -0.199965 3.328619 -0.249757
v -0.222181 3.328619 -0.227541
v -0.186645 3.328619 0.233118
v -0.207381 3.328619 0.212382
v 0.186644 3.328619 0.233118
v 0.207380 3.328619 0.212382
v 0.207380 3.328619 -0.212385
v 0.186644 3.328619 -0.233121
v -0.186645 3.328619 -0.233121
v -0.207381 3.328619 -0.212385
v -0.151303 3.150697 0.188976
v -0.168113 3.150697 0.172167
v 0.151302 3.150697 0.188976
v 0.168112 3.150697 0.172167
v 0.168112 3.150697 -0.172169
v 0.151302 3.150697 -0.188978
v -0.151303 3.150697 -0.188978
v -0.168113 3.150697 -0.172169
vt 0.251260 0.015837
vt 0.463570 0.017763
vt 0.459214 0.497845
vt 0.246904 0.495918
vt 0.472920 0.017848
vt 0.468564 0.497930
vt 0.241910 0.015752
vt 0.237554 0.495833
vt 0.020049 0.013965
vt 0.232365 0.015234
vt 0.229471 0.499454
vt 0.017156 0.498185
vt 0.241715 0.015290
vt 0.238822 0.499510
vt 0.010699 0.013909
vt 0.007806 0.498130
vt 0.947757 0.975463
vt 0.947757 0.926158
vt 0.963573 0.917798
vt 0.963573 0.983823
vt 0.947757 0.923751
vt 0.963573 0.914574
vt 0.947757 0.977870
vt 0.963573 0.987046
vt 0.925609 0.975462
vt 0.925609 0.926158
vt 0.941425 0.917797
vt 0.941425 0.983823
vt 0.925609 0.923751
vt 0.941425 0.914574
vt 0.925609 0.977869
vt 0.941425 0.987047
vt 0.514033 0.982066
vt 0.500533 0.967058
vt 0.500533 0.696895
vt 0.514033 0.681887
vt 0.790563 0.681887
vt 0.804063 0.696895
vt 0.804063 0.967058
vt 0.790563 0.982066
vt 0.499034 0.998740
vt 0.485534 0.983733
vt 0.485534 0.680220
vt 0.499034 0.665212
vt 0.805562 0.665212
vt 0.819062 0.680220
vt 0.819062 0.983733
vt 0.805562 0.998740
vt 0.856808 0.925831
vt 0.859520 0.923392
vt 0.908328 0.923392
vt 0.911039 0.925831
vt 0.911039 0.975789
vt 0.908328 0.978228
vt 0.859520 0.978228
vt 0.856808 0.975789
vt 0.850475 0.919996
vt 0.853819 0.916988
vt 0.914028 0.916988
vt 0.917373 0.919996
vt 0.917373 0.981624
vt 0.914028 0.984632
vt 0.853819 0.984632
vt 0.850475 0.981624
vt 0.848088 0.917797
vt 0.851671 0.914574
vt 0.916177 0.914574
vt 0.919760 0.917797
vt 0.919760 0.983823
vt 0.916177 0.987046
vt 0.851671 0.987046
vt 0.848088 0.983823
vt 0.123801 0.991441
vt 0.110302 0.976433
vt 0.125301 0.959759
vt 0.138801 0.974766
vt 0.110302 0.672920
vt 0.125301 0.689595
vt 0.222930 0.872862
vt 0.227745 0.878215
vt 0.415331 0.974766
vt 0.430330 0.991441
vt 0.138801 0.674587
vt 0.123801 0.657913
vt 0.222930 0.776492
vt 0.250007 0.848761
vt 0.252414 0.851437
vt 0.326386 0.878215
vt 0.428830 0.959759
vt 0.443830 0.976433
vt 0.227745 0.771139
vt 0.430330 0.657913
vt 0.415331 0.674587
vt 0.250007 0.800592
vt 0.301718 0.851437
vt 0.331201 0.872862
vt 0.428830 0.689595
vt 0.443830 0.672920
vt 0.326386 0.771139
vt 0.252414 0.797916
vt 0.304125 0.848761
vt 0.331201 0.776492
vt 0.301718 0.797916
vt 0.304125 0.800592
vt 0.741516 0.076227
vt 0.950779 0.072217
vt 0.954497 0.432369
vt 0.745233 0.436378
vt 0.717064 0.493432
vt 0.476470 0.496302
vt 0.489439 0.028848
vt 0.730033 0.025978
vt 0.995695 0.922743
vt 0.995695 0.970912
vt 0.986518 0.979080
vt 0.986518 0.914574
vt 0.969906 0.970912
vt 0.969906 0.922742
vt 0.979083 0.914574
vt 0.979083 0.979080
vn 0.000000 -1.000000 0.000000
vn 0.000000 -1.000000 0.000000
vn 0.000000 -1.000000 0.000000
vn 0.000000 -1.000000 0.000000
vn 0.000000 -1.000000 0.000000
vn 0.000000 -1.000000 0.000000
vn 0.000000 -1.000000 0.000000
vn 0.000000 -1.000000 0.000000
vn 0.000000 1.000000 -0.000000
vn 0.000000 1.000000 -0.000000
vn 0.000000 1.000000 -0.000000
vn 0.000000 1.000000 -0.000000
vn 0.000000 1.000000 -0.000000
vn 0.000000 1.000000 -0.000000
vn 0.000000 1.000000 -0.000000
vn 0.000000 1.000000 -0.000000
vn -0.695642 -0.718039 0.022398
vn -0.025150 -0.719348 0.694194
vn -0.053762 -0.732455 0.678689
vn -0.681755 -0.729989 0.048236
vn -0.707110 0.000000 0.707104
vn -0.707110 0.000000 0.707104
vn -0.707110 0.000000 0.707104
vn -0.707110 0.000000 0.707104
vn -0.707109 0.000000 -0.707105
vn -0.707109 0.000000 -0.707105
vn -0.707109 0.000000 -0.707105
vn -0.707109 0.000000 -0.707105
vn -0.681755 -0.729989 -0.048235
vn -0.408249 -0.816496 -0.408248
vn -0.408249 -0.816497 -0.408248
vn -0.695642 -0.718039 -0.022398
vn 0.707106 0.000000 0.707107
vn 0.707106 0.000000 0.707107
vn 0.707106 0.000000 0.707107
vn 0.707106 0.000000 0.707107
vn 0.408248 -0.816497 0.408248
vn 0.053762 -0.732455 0.678689
vn 0.025150 -0.719348 0.694194
vn 0.408248 -0.816497 0.408248
vn 0.408248 -0.816496 -0.408249
vn 0.408248 -0.816496 -0.408249
vn 0.408248 -0.816496 -0.408249
vn 0.408248 -0.816496 -0.408249
vn 0.707106 0.000000 -0.707108
vn 0.707106 0.000000 -0.707108
vn 0.707106 0.000000 -0.707108
vn 0.707106 0.000000 -0.707108
vn -0.739624 0.671136 0.050328
vn -0.056155 0.673728 0.736843
vn -0.027674 0.660773 0.750076
vn -0.751435 0.659346 0.024641
vn -0.751435 0.659347 -0.024641
vn -0.027673 0.660771 -0.750077
vn -0.056155 0.673726 -0.736844
vn -0.739624 0.671136 -0.050328
vn 0.751434 0.659348 0.024641
vn 0.027674 0.660773 0.750076
vn 0.056155 0.673728 0.736843
vn 0.739623 0.671137 0.050329
vn 0.027673 0.660771 -0.750077
vn 0.751434 0.659348 -0.024641
vn 0.739623 0.671137 -0.050328
vn 0.056155 0.673726 -0.736844
vn 0.707107 -0.707107 0.000000
vn 0.707107 -0.707107 0.000000
vn 0.707107 -0.707107 0.000000
vn 0.707107 -0.707107 0.000000
vn 0.000000 -0.707107 -0.707106
vn 0.000000 -0.707107 -0.707106
vn 0.000000 -0.707107 -0.707106
vn 0.000000 -0.707107 -0.707106
vn 0.000000 0.000000 1.000000
vn 0.000000 0.000000 1.000000
vn 0.000000 0.000000 1.000000
vn 0.000000 0.000000 1.000000
vn 0.000000 0.000000 -1.000000
vn 0.000000 0.000000 -1.000000
vn 0.000000 0.000000 -1.000000
vn 0.000000 0.000000 -1.000000
vn 1.000000 0.000000 0.000000
vn 1.000000 0.000000 0.000000
vn 1.000000 0.000000 0.000000
vn 1.000000 0.000000 0.000000
vn -1.000000 0.000000 0.000000
vn -1.000000 0.000000 0.000000
vn -1.000000 0.000000 0.000000
vn -1.000000 0.000000 0.000000
vn -0.111228 0.987551 0.111226
vn -0.111228 0.987551 0.111226
vn -0.111228 0.987551 0.111226
vn -0.111228 0.987551 0.111226
vn 0.000000 0.980048 0.198760
vn 0.000000 0.980048 0.198760
vn 0.000000 0.980048 0.198760
vn 0.000000 0.980048 0.198760
vn 0.111228 0.987551 0.111229
vn 0.111228 0.987551 0.111229
vn 0.111228 0.987551 0.111229
vn 0.111228 0.987551 0.111229
vn 0.222275 0.974984 0.000000
vn 0.222275 0.974984 0.000000
vn 0.222275 0.974984 0.000000
vn 0.222275 0.974984 0.000000
vn 0.111228 0.987551 -0.111230
vn 0.111228 0.987551 -0.111230
vn 0.111228 0.987551 -0.111230
vn 0.111228 0.987551 -0.111230
vn 0.000000 0.980048 -0.198760
vn 0.000000 0.980048 -0.198760
vn 0.000000 0.980048 -0.198760
vn 0.000000 0.980048 -0.198760
vn -0.111228 0.987551 -0.111228
vn -0.111228 0.987551 -0.111228
vn -0.111228 0.987551 -0.111228
vn -0.111228 0.987551 -0.111228
vn -0.222275 0.974984 0.000000
vn -0.222275 0.974984 0.000000
vn -0.222275 0.974984 0.000000
vn -0.222275 0.974984 0.000000
vn -0.176025 0.968519 0.176029
vn -0.176025 0.968519 0.176029
vn -0.176025 0.968519 0.176029
vn -0.176025 0.968519 0.176029
vn 0.000000 0.950400 0.311030
vn 0.000000 0.950400 0.311030
vn 0.000000 0.950400 0.311030
vn 0.000000 0.950400 0.311030
vn 0.176026 0.968519 0.176027
vn 0.176026 0.968519 0.176027
vn 0.176026 0.968519 0.176027
vn 0.176026 0.968519 0.176027
vn 0.345259 0.938508 0.000000
vn 0.345259 0.938508 0.000000
vn 0.345259 0.938507 0.000000
vn 0.345259 0.938507 0.000000
vn 0.176026 0.968520 -0.176023
vn 0.176026 0.968520 -0.176023
vn 0.176026 0.968520 -0.176023
vn 0.176026 0.968520 -0.176023
vn 0.000000 0.950400 -0.311029
vn 0.000000 0.950400 -0.311029
vn 0.000000 0.950400 -0.311029
vn 0.000000 0.950400 -0.311029
vn -0.176025 0.968519 -0.176028
vn -0.176025 0.968519 -0.176028
vn -0.176025 0.968519 -0.176028
vn -0.176025 0.968519 -0.176028
vn -0.345258 0.938508 0.000000
vn -0.345258 0.938508 0.000000
vn -0.345258 0.938508 0.000000
vn -0.345258 0.938508 0.000000
vn -0.677534 -0.286178 0.677532
vn -0.677534 -0.286178 0.677532
vn -0.677534 -0.286178 0.677532
vn -0.677534 -0.286178 0.677532
vn 0.000000 -0.228374 0.973574
vn 0.000000 -0.228374 0.973574
vn 0.000000 -0.228374 0.973574
vn 0.000000 -0.228374 0.973574
vn 0.677534 -0.286178 0.677532
vn 0.677534 -0.286178 0.677532
vn 0.677534 -0.286178 0.677532
vn 0.677534 -0.286178 0.677532
vn 0.978914 -0.204275 0.000000
vn 0.978914 -0.204275 0.000000
vn 0.978914 -0.204275 0.000000
vn 0.978914 -0.204275 0.000000
vn 0.677534 -0.286179 -0.677532
vn 0.677534 -0.286179 -0.677532
vn 0.677534 -0.286179 -0.677532
vn 0.677534 -0.286179 -0.677532
vn 0.000000 -0.228376 -0.973573
vn 0.000000 -0.228376 -0.973573
vn 0.000000 -0.228376 -0.973573
vn 0.000000 -0.228376 -0.973573
vn -0.677533 -0.286179 -0.677533
vn -0.677533 -0.286179 -0.677533
vn -0.677533 -0.286179 -0.677533
vn -0.677533 -0.286179 -0.677533
vn -0.978914 -0.204275 0.000000
vn -0.978914 -0.204275 0.000000
vn -0.978914 -0.204275 0.000000
vn -0.978914 -0.204275 0.000000
vn 0.000000 1.000000 0.000006
vn 0.000000 1.000000 0.000006
vn 0.000000 1.000000 0.000006
vn 0.000000 1.000000 0.000006
vn 0.000000 1.000000 -0.000014
vn 0.000000 1.000000 -0.000014
vn 0.000000 1.000000 -0.000014
vn 0.000000 1.000000 -0.000014
vn 0.000000 1.000000 -0.000012
vn 0.000000 1.000000 -0.000012
vn 0.000000 1.000000 -0.000012
vn 0.000000 1.000000 -0.000012
vn 0.000000 1.000000 0.000000
vn 0.000000 1.000000 0.000000
vn 0.000000 1.000000 0.000000
vn 0.000000 1.000000 0.000000
vn 0.000000 1.000000 0.000012
vn 0.000000 1.000000 0.000012
vn 0.000000 1.000000 0.000012
vn 0.000000 1.000000 0.000012
vn 0.000000 1.000000 0.000014
vn 0.000000 1.000000 0.000014
vn 0.000000 1.000000 0.000014
vn 0.000000 1.000000 0.000014
vn 0.000000 1.000000 -0.000006
vn 0.000000 1.000000 -0.000006
vn 0.000000 1.000000 -0.000006
vn 0.000000 1.000000 -0.000006
vn 0.000000 1.000000 0.000000
vn 0.000000 1.000000 0.000000
vn 0.000000 1.000000 0.000000
vn 0.000000 1.000000 0.000000
vn 0.674262 0.301217 -0.674269
vn 0.674262 0.301217 -0.674269
vn 0.674262 0.301217 -0.674269
vn 0.674262 0.301217 -0.674269
vn 0.000000 0.240798 -0.970575
vn 0.000000 0.240798 -0.970575
vn 0.000000 0.240798 -0.970575
vn 0.000000 0.240798 -0.970575
vn -0.674267 0.301217 -0.674264
vn -0.674267 0.301217 -0.674264
vn -0.674267 0.301217 -0.674264
vn -0.674267 0.301217 -0.674264
vn -0.976500 0.215518 0.000000
vn -0.976500 0.215518 0.000000
vn -0.976500 0.215518 0.000000
vn -0.976500 0.215518 0.000000
vn -0.674263 0.301218 0.674268
vn -0.674263 0.301218 0.674268
vn -0.674263 0.301218 0.674268
vn -0.674263 0.301218 0.674268
vn 0.000000 0.240798 0.970575
vn 0.000000 0.240798 0.970575
vn 0.000000 0.240798 0.970575
vn 0.000000 0.240798 0.970575
vn 0.674258 0.301218 0.674273
vn 0.674258 0.301218 0.674273
vn 0.674258 0.301218 0.674273
vn 0.674258 0.301218 0.674273
vn 0.976500 0.215518 0.000000
vn 0.976500 0.215518 0.000000
vn 0.976500 0.215519 0.000000
vn 0.976500 0.215519 0.000000
s off
usemtl lambert27SG
f 8/33/1 7/34/2 13/35/3 14/36/4 11/37/5 12/38/6 1/39/7 2/40/8
f 66/49/9 65/50/10 67/51/11 68/52/12 69/53/13 70/54/14 71/55/15 72/56/16
s 1
f 2/40/17 1/39/18 4/47/19 3/48/20
s off
f 3/10/21 4/13/22 17/14/23 18/11/24
f 5/15/25 6/9/26 23/12/27 24/16/28
s 1
f 6/41/29 5/42/30 7/34/31 8/33/32
s off
f 9/7/33 10/1/34 27/4/35 28/8/36
s 1
f 10/45/37 9/46/38 12/38/39 11/37/40
s off
f 14/36/41 13/35/42 16/43/43 15/44/44
f 15/2/45 16/5/46 31/6/47 32/3/48
s 2
f 18/73/49 17/74/50 19/75/51 20/76/52
f 22/81/53 21/89/54 24/90/55 23/82/56
f 25/83/57 26/78/58 28/77/59 27/84/60
f 29/97/61 30/93/62 32/92/63 31/98/64
s 1
f 2/40/17 3/48/20 6/41/29 8/33/32
f 4/47/19 1/39/18 12/38/39 9/46/38
s off
f 10/45/65 11/37/66 14/36/67 15/44/68
s 2
f 18/73/49 20/76/52 22/81/53 23/82/56
f 19/75/51 17/74/50 28/77/59 26/78/58
f 25/83/57 27/84/60 32/92/63 30/93/62
f 24/90/55 21/89/54 29/97/61 31/98/64
s off
f 7/34/69 5/42/70 16/43/71 13/35/72
f 4/105/73 9/106/74 28/107/75 17/108/76
f 24/109/77 31/110/78 16/111/79 5/112/80
f 10/1/81 15/2/82 32/3/83 27/4/84
f 6/9/85 3/10/86 18/11/87 23/12/88
f 20/76/89 19/75/90 33/79/91 34/80/92
f 19/75/93 26/78/94 35/85/95 33/79/96
f 26/78/97 25/83/98 36/91/99 35/85/100
f 25/83/101 30/93/102 37/99/103 36/91/104
f 30/93/105 29/97/106 38/102/107 37/99/108
f 29/97/109 21/89/110 39/96/111 38/102/112
f 21/89/113 22/81/114 40/88/115 39/96/116
f 22/81/117 20/76/118 34/80/119 40/88/120
f 34/80/121 33/79/122 41/86/123 42/87/124
f 33/79/125 35/85/126 43/94/127 41/86/128
f 35/85/129 36/91/130 44/100/131 43/94/132
f 36/91/133 37/99/134 45/103/135 44/100/136
f 37/99/137 38/102/138 46/104/139 45/103/140
f 38/102/141 39/96/142 47/101/143 46/104/144
f 39/96/145 40/88/146 48/95/147 47/101/148
f 40/88/149 34/80/150 42/87/151 48/95/152
f 42/26/153 41/29/154 49/30/155 50/27/156
f 41/117/157 43/118/158 51/119/159 49/120/160
f 43/23/161 44/17/162 52/20/163 51/24/164
f 44/17/165 45/18/166 53/19/167 52/20/168
f 45/18/169 46/21/170 54/22/171 53/19/172
f 46/113/173 47/114/174 55/115/175 54/116/176
f 47/31/177 48/25/178 56/28/179 55/32/180
f 48/25/181 42/26/182 50/27/183 56/28/184
f 50/65/185 49/66/186 57/58/187 58/57/188
f 49/66/189 51/67/190 59/59/191 57/58/192
f 51/67/193 52/68/194 60/60/195 59/59/196
f 52/68/197 53/69/198 61/61/199 60/60/200
f 53/69/201 54/70/202 62/62/203 61/61/204
f 54/70/205 55/71/206 63/63/207 62/62/208
f 55/71/209 56/72/210 64/64/211 63/63/212
f 56/72/213 50/65/214 58/57/215 64/64/216
f 58/57/217 57/58/218 65/50/219 66/49/220
f 57/58/221 59/59/222 67/51/223 65/50/224
f 59/59/225 60/60/226 68/52/227 67/51/228
f 60/60/229 61/61/230 69/53/231 68/52/232
f 61/61/233 62/62/234 70/54/235 69/53/236
f 62/62/237 63/63/238 71/55/239 70/54/240
f 63/63/241 64/64/242 72/56/243 71/55/244
f 64/64/245 58/57/246 66/49/247 72/56/248
