# This file uses centimeters as units for non-parametric coordinates.

mtllib PaperBag.mtl
v -0.124187 1.846750 0.963215
v 0.188170 1.581859 0.963215
v 0.188170 1.581859 -0.963214
v -0.124187 1.846750 -0.963214
v 0.095158 1.918436 0.963215
v 0.195340 1.777278 0.963215
v 0.195340 1.777278 -0.963214
v 0.095158 1.918436 -0.963214
v 0.333288 1.836149 0.963215
v 0.301310 1.799415 0.963215
v 0.301310 1.799415 -0.963214
v 0.333288 1.836149 -0.963214
v -0.592818 -1.392231 0.815029
v -0.721599 -1.250246 0.963215
v 0.716985 -1.249430 0.963215
v 0.590137 -1.392231 0.812348
v -0.721599 -1.250246 -0.963214
v -0.592818 -1.392231 -0.815028
v 0.590137 -1.392231 -0.812347
v 0.716985 -1.249430 -0.963214
v -0.494091 1.460953 0.963215
v -0.565795 1.297200 0.963215
v 0.386996 1.449113 0.963215
v 0.481647 1.290224 0.963215
v -0.494091 1.460953 -0.963214
v -0.565795 1.297200 -0.963214
v 0.386996 1.449113 -0.963214
v 0.481647 1.290224 -0.963214
vt 0.242443 0.674887
vt 0.242443 0.361907
vt 0.264408 0.361907
vt 0.264408 0.674887
vt 0.624550 0.439653
vt 0.937531 0.439653
vt 0.937531 0.725116
vt 0.624550 0.725116
vt 0.649061 0.423601
vt 0.913020 0.423601
vt 0.624550 0.742976
vt 0.937531 0.742976
vt 0.623798 0.036645
vt 0.936779 0.036645
vt 0.936779 0.351456
vt 0.623798 0.351456
vt 0.912703 0.019098
vt 0.647873 0.019098
vt 0.936779 0.371693
vt 0.623798 0.371693
vt 0.140072 0.674887
vt 0.140072 0.361907
vt 0.186394 0.361907
vt 0.186394 0.674887
vt 0.061953 0.674887
vt 0.061953 0.361907
vt 0.236684 0.361907
vt 0.236684 0.674887
vt 0.270167 0.674887
vt 0.270167 0.361907
vt 0.292547 0.361907
vt 0.292547 0.674887
vt 0.299300 0.674887
vt 0.299300 0.361907
vt 0.029067 0.709103
vt 0.278891 0.709538
vt 0.278891 0.973497
vt 0.029067 0.973933
vt 0.001870 0.685027
vt 0.305680 0.685027
vt 0.001870 0.998008
vt 0.305680 0.998008
vt 0.355037 0.685027
vt 0.355037 0.998008
vt 0.313048 0.998008
vt 0.313048 0.685027
vt 0.128035 0.350102
vt 0.194001 0.320328
vt 0.195515 0.342294
vt 0.174358 0.358160
vt 0.049916 0.306738
vt 0.235990 0.305407
vt 0.217895 0.344782
vt 0.224648 0.348911
vt 0.034774 0.288331
vt 0.255979 0.287547
vt 0.001870 0.001992
vt 0.305680 0.002084
vt 0.426616 0.320856
vt 0.492977 0.349740
vt 0.446766 0.358421
vt 0.425398 0.342840
vt 0.384430 0.306501
vt 0.570505 0.305329
vt 0.396357 0.349849
vt 0.403054 0.345629
vt 0.585399 0.286721
vt 0.364203 0.288912
vt 0.310667 0.004143
vt 0.614449 -0.000035
vn 0.754255 -0.656581 0.000000
vn 0.754255 -0.656581 0.000000
vn 0.754255 -0.656581 0.000000
vn 0.754255 -0.656581 0.000000
vn 0.000000 0.000000 1.000000
vn 0.000000 0.000000 1.000000
vn 0.000000 0.000000 1.000000
vn 0.000000 0.000000 1.000000
vn 0.999328 -0.036664 0.000000
vn 0.999328 -0.036664 0.000000
vn 0.999328 -0.036664 0.000000
vn 0.999328 -0.036664 0.000000
vn 0.000000 0.000000 -1.000000
vn 0.000000 0.000000 -1.000000
vn 0.000000 0.000000 -1.000000
vn 0.000000 0.000000 -1.000000
vn -0.310650 0.950525 0.000000
vn -0.310650 0.950525 0.000000
vn -0.310650 0.950525 0.000000
vn -0.310650 0.950525 0.000000
vn -0.000001 0.000000 1.000000
vn -0.000001 0.000000 1.000000
vn -0.000001 0.000000 1.000000
vn -0.000001 0.000000 1.000000
vn 0.204479 -0.978871 0.000000
vn 0.204479 -0.978871 0.000000
vn 0.204479 -0.978871 0.000000
vn 0.204479 -0.978871 0.000000
vn 0.000000 0.000000 -1.000000
vn 0.000000 0.000000 -1.000000
vn 0.000000 0.000000 -1.000000
vn 0.000000 0.000000 -1.000000
vn 0.326603 0.945162 0.000000
vn 0.326603 0.945162 0.000000
vn 0.326603 0.945162 0.000000
vn 0.326603 0.945162 0.000000
vn -0.740709 -0.671826 0.000000
vn -0.740709 -0.671826 0.000000
vn -0.740709 -0.671826 0.000000
vn -0.740709 -0.671826 0.000000
vn 0.000931 -0.724167 0.689625
vn 0.000931 -0.724167 0.689625
vn 0.000931 -0.724167 0.689625
vn 0.000931 -0.724167 0.689625
vn 0.747630 -0.664116 0.000000
vn 0.747630 -0.664116 0.000000
vn 0.747630 -0.664116 0.000000
vn 0.747630 -0.664116 0.000000
vn 0.000931 -0.724168 -0.689623
vn 0.000931 -0.724168 -0.689623
vn 0.000931 -0.724168 -0.689623
vn 0.000931 -0.724168 -0.689623
vn 0.000000 -1.000000 0.000000
vn 0.000000 -1.000000 0.000000
vn 0.000000 -1.000000 0.000000
vn 0.000000 -1.000000 0.000000
vn -0.000000 0.000000 1.000000
vn -0.000000 0.000000 1.000000
vn -0.000000 0.000000 1.000000
vn -0.000000 0.000000 1.000000
vn -0.916030 0.401109 0.000000
vn -0.916030 0.401109 0.000000
vn -0.916030 0.401109 0.000000
vn -0.916030 0.401109 0.000000
vn 0.859116 0.511781 0.000000
vn 0.859116 0.511781 0.000000
vn 0.859116 0.511781 0.000000
vn 0.859116 0.511781 0.000000
vn -0.000000 0.000000 -1.000000
vn -0.000000 0.000000 -1.000000
vn -0.000000 0.000000 -1.000000
vn -0.000000 0.000000 -1.000000
vn -0.000000 0.000000 1.000000
vn -0.000000 0.000000 1.000000
vn -0.000000 0.000000 1.000000
vn -0.000000 0.000000 1.000000
vn 0.555267 0.831672 0.000000
vn 0.555267 0.831672 0.000000
vn 0.555267 0.831672 0.000000
vn 0.555267 0.831672 0.000000
vn -0.000000 0.000000 -1.000000
vn -0.000000 0.000000 -1.000000
vn -0.000000 0.000000 -1.000000
vn -0.000000 0.000000 -1.000000
vn -0.721818 0.692083 0.000000
vn -0.721818 0.692083 0.000000
vn -0.721818 0.692083 0.000000
vn -0.721818 0.692083 0.000000
vn 0.000000 0.000000 1.000000
vn 0.000000 0.000000 1.000000
vn 0.000000 0.000000 1.000000
vn 0.000000 0.000000 1.000000
vn 0.000000 0.000000 -1.000000
vn 0.000000 0.000000 -1.000000
vn 0.000000 0.000000 -1.000000
vn 0.000000 0.000000 -1.000000
vn 0.995734 0.092270 0.000000
vn 0.995734 0.092270 0.000000
vn 0.995734 0.092270 0.000000
vn 0.995734 0.092270 0.000000
vn -0.998135 0.061047 0.000000
vn -0.998135 0.061047 0.000000
vn -0.998135 0.061047 0.000000
vn -0.998135 0.061047 0.000000
s off
usemtl lambert7SG
f 9/33/1 10/32/2 11/31/3 12/34/4
f 1/47/5 2/48/6 6/49/7 5/50/8
f 2/1/9 3/2/10 7/3/11 6/4/12
f 3/59/13 4/60/14 8/61/15 7/62/16
f 4/21/17 1/22/18 5/23/19 8/24/20
f 5/50/21 6/49/22 10/53/23 9/54/24
f 6/29/25 7/30/26 11/31/27 10/32/28
f 7/62/29 8/61/30 12/65/31 11/66/32
f 8/24/33 5/23/34 9/27/35 12/28/36
f 13/17/37 14/14/38 17/13/39 18/18/40
f 14/41/41 13/38/42 16/37/43 15/42/44
f 15/5/45 16/9/46 19/10/47 20/6/48
f 18/35/49 17/39/50 20/40/51 19/36/52
f 18/35/53 19/36/54 16/37/55 13/38/56
f 21/51/57 22/55/58 24/56/59 23/52/60
f 22/15/61 21/19/62 25/20/63 26/16/64
f 23/11/65 24/8/66 28/7/67 27/12/68
f 26/67/69 25/64/70 27/63/71 28/68/72
f 21/51/73 23/52/74 2/48/75 1/47/76
f 23/43/77 27/44/78 3/45/79 2/46/80
f 27/63/81 25/64/82 4/60/83 3/59/84
f 25/25/85 21/26/86 1/22/87 4/21/88
f 14/57/89 15/58/90 24/56/91 22/55/92
f 26/67/93 28/68/94 20/69/95 17/70/96
f 15/5/97 20/6/98 28/7/99 24/8/100
f 17/13/101 14/14/102 22/15/103 26/16/104
